<svg style="display: none;" aria-hidden="true" xmlns="http://www.w3.org/2000/svg" xmlns:xlink="http://www.w3.org/1999/xlink"><symbol viewBox="0 0 24 47"  id="svg-arrow" xmlns="http://www.w3.org/2000/svg">
<path d="M10.9393 46.0607C11.5251 46.6464 12.4749 46.6464 13.0607 46.0607L22.6066 36.5147C23.1924 35.9289 23.1924 34.9792 22.6066 34.3934C22.0208 33.8076 21.0711 33.8076 20.4853 34.3934L12 42.8787L3.51472 34.3934C2.92893 33.8076 1.97919 33.8076 1.3934 34.3934C0.807613 34.9792 0.807613 35.9289 1.3934 36.5147L10.9393 46.0607ZM10.5 6.55671e-08L10.5 45L13.5 45L13.5 -6.55671e-08L10.5 6.55671e-08Z" />
</symbol><symbol viewBox="0 0 15 27"  id="svg-facebook" xmlns="http://www.w3.org/2000/svg">
<path d="M9.76159 27V14.7041H13.9079L14.5242 9.88981H9.76159V6.82333C9.76159 5.43411 10.1485 4.48296 12.1414 4.48296H14.6667V0.190784C13.438 0.0590496 12.203 -0.00455774 10.9672 0.000253789C7.30229 0.000253789 4.78601 2.23861 4.78601 6.34775V9.88081H0.666687V14.6951H4.79501V27H9.76159Z" />
</symbol><symbol viewBox="0 0 28 26"  id="svg-favourite" xmlns="http://www.w3.org/2000/svg">
<path d="M20.3 0C17.864 0 15.526 1.134 14 2.926C12.474 1.134 10.136 0 7.7 0C3.388 0 0 3.388 0 7.7C0 12.992 4.76 17.304 11.97 23.856L14 25.69L16.03 23.842C23.24 17.304 28 12.992 28 7.7C28 3.388 24.612 0 20.3 0ZM14.14 21.77L14 21.91L13.86 21.77C7.196 15.736 2.8 11.746 2.8 7.7C2.8 4.9 4.9 2.8 7.7 2.8C9.856 2.8 11.956 4.186 12.698 6.104H15.316C16.044 4.186 18.144 2.8 20.3 2.8C23.1 2.8 25.2 4.9 25.2 7.7C25.2 11.746 20.804 15.736 14.14 21.77Z"/>
</symbol><symbol viewBox="0 0 29 27"  id="svg-google" xmlns="http://www.w3.org/2000/svg">
<path d="M2.14767 6.73313C2.14767 9.02506 2.92558 10.6788 4.45801 11.6499C5.71451 12.4476 7.17056 12.5673 7.9282 12.5673C8.11215 12.5673 8.26025 12.5581 8.36314 12.5519C8.36314 12.5519 8.12306 14.0922 9.28291 15.614H9.22991C7.22044 15.614 0.666687 16.0266 0.666687 21.3315C0.666687 26.7254 6.68573 27 7.8939 27C7.989 27 8.04512 26.9969 8.04512 26.9969C8.05759 26.9969 8.14333 27 8.29143 27C9.06622 27 11.0694 26.9049 12.9293 26.0136C15.3425 24.863 16.5662 22.8549 16.5662 20.0536C16.5662 17.3475 14.7018 15.7367 13.3408 14.5585C12.5099 13.839 11.7912 13.2193 11.7912 12.6164C11.7912 12.0027 12.3166 11.541 12.9791 10.9565C14.0532 10.013 15.0666 8.66761 15.0666 6.12409C15.0666 3.88892 14.7719 2.38705 12.9558 1.43438C13.1444 1.33926 13.8147 1.27023 14.1452 1.2242C15.1289 1.09227 16.5678 0.941932 16.5678 0.151875V0H9.39827C9.32656 0.00306818 2.14767 0.263864 2.14767 6.73313ZM13.7212 20.5599C13.8584 22.7168 11.983 24.3077 9.16599 24.5086C6.30535 24.7157 3.95136 23.4486 3.81417 21.2932C3.74714 20.2561 4.21014 19.2436 5.11588 18.4352C6.03409 17.6175 7.29527 17.1112 8.66713 17.0115C8.82926 17.0023 8.98983 16.9931 9.1504 16.9931C11.799 16.9947 13.5918 18.5257 13.7212 20.5599ZM11.8489 5.2558C12.552 7.69193 11.4904 10.2355 9.79736 10.7064C9.60247 10.7599 9.40104 10.7867 9.19873 10.7862C7.64915 10.7862 6.1136 9.2429 5.54303 7.11511C5.22501 5.92466 5.25151 4.87841 5.6163 3.87511C5.9733 2.88563 6.61869 2.22136 7.42934 1.99585C7.62421 1.94216 7.82531 1.91455 8.02953 1.91455C9.90025 1.91455 11.1037 2.67852 11.8489 5.2558ZM23.9899 10.4318V5.82955H20.872V10.4318H16.1952V13.5H20.872V18.1023H23.9899V13.5H28.6667V10.4318H23.9899Z" />
</symbol><symbol viewBox="0 0 54 54" fill="none" id="svg-round-arrow" xmlns="http://www.w3.org/2000/svg">
<path d="M27 -1.18021e-06C34.1608 -1.49322e-06 41.0284 2.84463 46.0919 7.90811C51.1554 12.9716 54 19.8392 54 27C54 34.1608 51.1554 41.0284 46.0919 46.0919C41.0284 51.1554 34.1608 54 27 54C19.8392 54 12.9716 51.1554 7.90812 46.0919C2.84463 41.0284 -8.67197e-07 34.1608 -1.18021e-06 27C-1.49322e-06 19.8392 2.84463 12.9716 7.90812 7.90812C12.9716 2.84463 19.8392 -8.67197e-07 27 -1.18021e-06ZM15.1875 25.3125C14.7399 25.3125 14.3107 25.4903 13.9943 25.8068C13.6778 26.1232 13.5 26.5524 13.5 27C13.5 27.4476 13.6778 27.8768 13.9943 28.1932C14.3107 28.5097 14.7399 28.6875 15.1875 28.6875L34.7389 28.6875L27.4928 35.9302C27.1759 36.2471 26.9979 36.6769 26.9979 37.125C26.9979 37.5731 27.1759 38.0029 27.4928 38.3197C27.8096 38.6366 28.2394 38.8146 28.6875 38.8146C29.1356 38.8146 29.5654 38.6366 29.8823 38.3197L40.0073 28.1947C40.1644 28.038 40.2891 27.8518 40.3742 27.6468C40.4592 27.4417 40.503 27.222 40.503 27C40.503 26.778 40.4592 26.5583 40.3742 26.3532C40.2891 26.1482 40.1644 25.962 40.0073 25.8052L29.8823 15.6802C29.5654 15.3634 29.1356 15.1854 28.6875 15.1854C28.2394 15.1854 27.8096 15.3634 27.4928 15.6802C27.1759 15.9971 26.9979 16.4269 26.9979 16.875C26.9979 17.3231 27.1759 17.7529 27.4928 18.0698L34.7389 25.3125L15.1875 25.3125Z" fill="#F5FBF2"/>
</symbol><symbol viewBox="0 0 33 28"  id="svg-twiiter" xmlns="http://www.w3.org/2000/svg">
<path d="M29.3883 7.32824C29.41 7.61991 29.41 7.90991 29.41 8.19991C29.41 17.0749 22.655 27.3016 10.31 27.3016C6.50667 27.3016 2.97333 26.1999 0 24.2866C0.54 24.3482 1.06 24.3699 1.62167 24.3699C4.64332 24.3772 7.57941 23.3668 9.95667 21.5016C8.5557 21.4762 7.19763 21.014 6.07206 20.1795C4.9465 19.3449 4.10964 18.1797 3.67833 16.8466C4.09333 16.9082 4.51 16.9499 4.94667 16.9499C5.54833 16.9499 6.15333 16.8666 6.715 16.7216C5.1946 16.4146 3.82746 15.5905 2.84603 14.3894C1.86461 13.1883 1.32949 11.6843 1.33167 10.1332V10.0499C2.22667 10.5482 3.265 10.8599 4.365 10.9016C3.44348 10.2892 2.68787 9.45828 2.16557 8.48289C1.64327 7.50751 1.37052 6.418 1.37167 5.31158C1.37167 4.06491 1.70333 2.92158 2.285 1.92491C3.9719 3.99994 6.07584 5.69751 8.46056 6.90767C10.8453 8.11783 13.4576 8.8136 16.1283 8.94991C16.025 8.44991 15.9617 7.93158 15.9617 7.41158C15.9612 6.52984 16.1346 5.65667 16.4718 4.84198C16.809 4.02728 17.3035 3.28703 17.927 2.66356C18.5505 2.04008 19.2907 1.54559 20.1054 1.20837C20.9201 0.871152 21.7933 0.697805 22.675 0.698243C24.6083 0.698243 26.3533 1.50824 27.58 2.81824C29.083 2.5276 30.5242 1.97895 31.84 1.19658C31.339 2.74794 30.2896 4.06342 28.8883 4.89658C30.2213 4.74454 31.5241 4.394 32.7533 3.85658C31.8352 5.19507 30.6975 6.36882 29.3883 7.32824Z" />
</symbol><symbol viewBox="0 0 38 27"  id="svg-youtube" xmlns="http://www.w3.org/2000/svg">
<path d="M36.7631 4.13064C36.5496 3.33827 36.1322 2.61565 35.5526 2.0347C34.9729 1.45376 34.2513 1.03475 33.4594 0.819389C30.5231 0.0131389 18.7763 1.42435e-05 18.7763 1.42435e-05C18.7763 1.42435e-05 7.03125 -0.0131111 4.09313 0.757514C3.30174 0.982788 2.58154 1.40772 2.00169 1.99152C1.42183 2.57531 1.00179 3.29837 0.781878 4.09126C0.00750309 7.02751 2.74715e-06 13.1175 2.74715e-06 13.1175C2.74715e-06 13.1175 -0.00749722 19.2375 0.761253 22.1438C1.1925 23.7506 2.45813 25.02 4.06688 25.4531C7.03313 26.2594 18.7481 26.2725 18.7481 26.2725C18.7481 26.2725 30.495 26.2856 33.4313 25.5169C34.2234 25.3019 34.9458 24.8839 35.5269 24.3041C36.1079 23.7243 36.5276 23.003 36.7444 22.2113C37.5206 19.2769 37.5263 13.1888 37.5263 13.1888C37.5263 13.1888 37.5638 7.06689 36.7631 4.13064ZM15.0188 18.7594L15.0281 7.50939L24.7913 13.1438L15.0188 18.7594Z" />
</symbol></svg>